<svg xmlns="http://www.w3.org/2000/svg" xmlns:xlink="http://www.w3.org/1999/xlink" zoomAndPan="magnify" preserveAspectRatio="xMidYMid meet" version="1.0" viewBox="4.72 237.54 795.9 262.33"><defs><g/></defs><g fill="#050a44" fill-opacity="1"><g transform="translate(-9.936885, 379.161679)"><g><path d="M 14.65625 0 L 14.65625 -140.640625 L 109.140625 -140.640625 L 109.140625 -116.671875 L 42 -116.671875 L 42 -80.421875 L 97.84375 -80.421875 L 97.84375 -58.234375 L 42 -58.234375 L 42 0 Z M 14.65625 0 "/></g></g></g><g fill="#050a44" fill-opacity="1"><g transform="translate(103.75888, 379.161679)"><g><path d="M 74.671875 0.984375 C 64.367188 0.984375 55.023438 -0.992188 46.640625 -4.953125 C 38.253906 -8.910156 31.054688 -14.289062 25.046875 -21.09375 C 19.046875 -27.894531 14.394531 -35.550781 11.09375 -44.0625 C 7.789062 -52.582031 6.140625 -61.332031 6.140625 -70.3125 C 6.140625 -79.6875 7.890625 -88.632812 11.390625 -97.15625 C 14.890625 -105.675781 19.707031 -113.269531 25.84375 -119.9375 C 31.988281 -126.601562 39.253906 -131.882812 47.640625 -135.78125 C 56.023438 -139.675781 65.234375 -141.625 75.265625 -141.625 C 85.429688 -141.625 94.707031 -139.578125 103.09375 -135.484375 C 111.476562 -131.390625 118.640625 -125.910156 124.578125 -119.046875 C 130.523438 -112.179688 135.148438 -104.519531 138.453125 -96.0625 C 141.753906 -87.613281 143.40625 -78.898438 143.40625 -69.921875 C 143.40625 -60.679688 141.6875 -51.800781 138.25 -43.28125 C 134.820312 -34.757812 130.035156 -27.164062 123.890625 -20.5 C 117.753906 -13.832031 110.492188 -8.582031 102.109375 -4.75 C 93.722656 -0.925781 84.578125 0.984375 74.671875 0.984375 Z M 33.875 -70.3125 C 33.875 -64.238281 34.796875 -58.363281 36.640625 -52.6875 C 38.492188 -47.007812 41.171875 -41.957031 44.671875 -37.53125 C 48.171875 -33.113281 52.460938 -29.613281 57.546875 -27.03125 C 62.628906 -24.457031 68.40625 -23.171875 74.875 -23.171875 C 81.476562 -23.171875 87.351562 -24.523438 92.5 -27.234375 C 97.65625 -29.941406 101.945312 -33.570312 105.375 -38.125 C 108.8125 -42.6875 111.421875 -47.769531 113.203125 -53.375 C 114.984375 -58.988281 115.875 -64.632812 115.875 -70.3125 C 115.875 -76.382812 114.914062 -82.226562 113 -87.84375 C 111.082031 -93.457031 108.375 -98.472656 104.875 -102.890625 C 101.382812 -107.316406 97.09375 -110.816406 92 -113.390625 C 86.914062 -115.972656 81.207031 -117.265625 74.875 -117.265625 C 68.132812 -117.265625 62.222656 -115.910156 57.140625 -113.203125 C 52.054688 -110.492188 47.796875 -106.894531 44.359375 -102.40625 C 40.929688 -97.914062 38.328125 -92.894531 36.546875 -87.34375 C 34.765625 -81.800781 33.875 -76.125 33.875 -70.3125 Z M 33.875 -70.3125 "/></g></g></g><g fill="#050a44" fill-opacity="1"><g transform="translate(253.504504, 379.161679)"><g><path d="M 14.65625 0 L 14.65625 -140.640625 L 76.859375 -140.640625 C 83.328125 -140.640625 89.300781 -139.316406 94.78125 -136.671875 C 100.257812 -134.035156 105.007812 -130.472656 109.03125 -125.984375 C 113.0625 -121.492188 116.164062 -116.472656 118.34375 -110.921875 C 120.53125 -105.378906 121.625 -99.703125 121.625 -93.890625 C 121.625 -87.941406 120.597656 -82.226562 118.546875 -76.75 C 116.503906 -71.269531 113.566406 -66.484375 109.734375 -62.390625 C 105.898438 -58.296875 101.410156 -55.128906 96.265625 -52.890625 L 128.359375 0 L 98.25 0 L 69.328125 -47.140625 L 42 -47.140625 L 42 0 Z M 42 -71.109375 L 76.265625 -71.109375 C 79.691406 -71.109375 82.722656 -72.128906 85.359375 -74.171875 C 88.003906 -76.222656 90.117188 -78.960938 91.703125 -82.390625 C 93.296875 -85.828125 94.09375 -89.660156 94.09375 -93.890625 C 94.09375 -98.378906 93.164062 -102.304688 91.3125 -105.671875 C 89.46875 -109.035156 87.125 -111.707031 84.28125 -113.6875 C 81.445312 -115.675781 78.378906 -116.671875 75.078125 -116.671875 L 42 -116.671875 Z M 42 -71.109375 "/></g></g></g><g fill="#050a44" fill-opacity="1"><g transform="translate(385.2252, 379.161679)"><g><path d="M 73.09375 0.984375 C 63.976562 0.984375 55.359375 -0.863281 47.234375 -4.5625 C 39.117188 -8.257812 31.988281 -13.375 25.84375 -19.90625 C 19.707031 -26.445312 14.921875 -34.070312 11.484375 -42.78125 C 8.054688 -51.5 6.34375 -60.941406 6.34375 -71.109375 C 6.34375 -80.742188 8.054688 -89.820312 11.484375 -98.34375 C 14.921875 -106.863281 19.742188 -114.359375 25.953125 -120.828125 C 32.160156 -127.296875 39.421875 -132.378906 47.734375 -136.078125 C 56.054688 -139.773438 65.101562 -141.625 74.875 -141.625 C 88.082031 -141.625 99.40625 -138.816406 108.84375 -133.203125 C 118.28125 -127.597656 125.378906 -120.171875 130.140625 -110.921875 L 109.734375 -95.875 C 106.171875 -102.875 101.1875 -108.21875 94.78125 -111.90625 C 88.375 -115.601562 81.410156 -117.453125 73.890625 -117.453125 C 67.941406 -117.453125 62.523438 -116.195312 57.640625 -113.6875 C 52.753906 -111.1875 48.523438 -107.753906 44.953125 -103.390625 C 41.390625 -99.035156 38.648438 -94.019531 36.734375 -88.34375 C 34.828125 -82.664062 33.875 -76.65625 33.875 -70.3125 C 33.875 -63.582031 34.894531 -57.378906 36.9375 -51.703125 C 38.988281 -46.023438 41.894531 -41.070312 45.65625 -36.84375 C 49.414062 -32.613281 53.804688 -29.273438 58.828125 -26.828125 C 63.847656 -24.390625 69.394531 -23.171875 75.46875 -23.171875 C 82.59375 -23.171875 89.425781 -25.019531 95.96875 -28.71875 C 102.507812 -32.414062 108.617188 -37.832031 114.296875 -44.96875 L 114.296875 -18.03125 C 102.535156 -5.351562 88.800781 0.984375 73.09375 0.984375 Z M 112.3125 -52.296875 L 83.984375 -52.296875 L 83.984375 -72.296875 L 134.890625 -72.296875 L 134.890625 0 L 112.3125 0 Z M 112.3125 -52.296875 "/></g></g></g><g fill="#050a44" fill-opacity="1"><g transform="translate(528.830439, 379.161679)"><g><path d="M 112.3125 -23.96875 L 112.3125 0 L 14.65625 0 L 14.65625 -140.640625 L 110.53125 -140.640625 L 110.53125 -116.671875 L 42 -116.671875 L 42 -82.796875 L 101.21875 -82.796875 L 101.21875 -60.609375 L 42 -60.609375 L 42 -23.96875 Z M 112.3125 -23.96875 "/></g></g></g><g fill="#050a44" fill-opacity="1"><g transform="translate(144.593696, 497.435956)"><g><path d="M 98.4375 -103.796875 C 97.519531 -104.710938 95.835938 -105.960938 93.390625 -107.546875 C 90.953125 -109.140625 87.984375 -110.660156 84.484375 -112.109375 C 80.984375 -113.566406 77.1875 -114.851562 73.09375 -115.96875 C 69 -117.09375 64.835938 -117.65625 60.609375 -117.65625 C 53.210938 -117.65625 47.632812 -116.269531 43.875 -113.5 C 40.113281 -110.726562 38.234375 -106.832031 38.234375 -101.8125 C 38.234375 -97.976562 39.421875 -94.9375 41.796875 -92.6875 C 44.171875 -90.445312 47.734375 -88.535156 52.484375 -86.953125 C 57.242188 -85.367188 63.1875 -83.65625 70.3125 -81.8125 C 79.5625 -79.5625 87.582031 -76.816406 94.375 -73.578125 C 101.175781 -70.347656 106.394531 -66.125 110.03125 -60.90625 C 113.664062 -55.6875 115.484375 -48.785156 115.484375 -40.203125 C 115.484375 -32.679688 114.09375 -26.242188 111.3125 -20.890625 C 108.539062 -15.546875 104.710938 -11.222656 99.828125 -7.921875 C 94.941406 -4.617188 89.394531 -2.207031 83.1875 -0.6875 C 76.988281 0.820312 70.390625 1.578125 63.390625 1.578125 C 56.390625 1.578125 49.390625 0.851562 42.390625 -0.59375 C 35.390625 -2.039062 28.65625 -4.117188 22.1875 -6.828125 C 15.71875 -9.535156 9.773438 -12.804688 4.359375 -16.640625 L 16.4375 -40.203125 C 17.625 -39.015625 19.734375 -37.460938 22.765625 -35.546875 C 25.804688 -33.640625 29.503906 -31.726562 33.859375 -29.8125 C 38.222656 -27.894531 42.976562 -26.273438 48.125 -24.953125 C 53.28125 -23.640625 58.5 -22.984375 63.78125 -22.984375 C 71.175781 -22.984375 76.785156 -24.234375 80.609375 -26.734375 C 84.441406 -29.242188 86.359375 -32.8125 86.359375 -37.4375 C 86.359375 -41.664062 84.835938 -44.96875 81.796875 -47.34375 C 78.765625 -49.71875 74.539062 -51.796875 69.125 -53.578125 C 63.71875 -55.359375 57.316406 -57.304688 49.921875 -59.421875 C 41.066406 -61.929688 33.664062 -64.738281 27.71875 -67.84375 C 21.78125 -70.945312 17.359375 -74.875 14.453125 -79.625 C 11.554688 -84.382812 10.109375 -90.328125 10.109375 -97.453125 C 10.109375 -107.097656 12.382812 -115.1875 16.9375 -121.71875 C 21.488281 -128.257812 27.660156 -133.210938 35.453125 -136.578125 C 43.242188 -139.941406 51.894531 -141.625 61.40625 -141.625 C 68.007812 -141.625 74.25 -140.894531 80.125 -139.4375 C 86 -137.988281 91.507812 -136.078125 96.65625 -133.703125 C 101.8125 -131.328125 106.4375 -128.753906 110.53125 -125.984375 Z M 98.4375 -103.796875 "/></g></g></g><g fill="#050a44" fill-opacity="1"><g transform="translate(266.014428, 497.435956)"><g><path d="M 119.84375 -116.671875 L 74.875 -116.671875 L 74.875 0 L 47.734375 0 L 47.734375 -116.671875 L 2.765625 -116.671875 L 2.765625 -140.640625 L 119.84375 -140.640625 Z M 119.84375 -116.671875 "/></g></g></g><g fill="#0a21c0" fill-opacity="1"><g transform="translate(410.367439, 499.071182)"><g><path d="M 60.015625 0.796875 C 50.941406 0.796875 43.226562 -0.722656 36.875 -3.765625 C 30.53125 -6.804688 25.410156 -10.992188 21.515625 -16.328125 C 17.628906 -21.660156 14.773438 -27.710938 12.953125 -34.484375 C 11.140625 -41.265625 10.234375 -48.332031 10.234375 -55.6875 L 10.234375 -113.625 L 32.328125 -113.625 L 32.328125 -55.6875 C 32.328125 -51 32.78125 -46.4375 33.6875 -42 C 34.59375 -37.570312 36.113281 -33.597656 38.25 -30.078125 C 40.382812 -26.566406 43.210938 -23.796875 46.734375 -21.765625 C 50.253906 -19.734375 54.628906 -18.71875 59.859375 -18.71875 C 65.191406 -18.71875 69.644531 -19.757812 73.21875 -21.84375 C 76.789062 -23.925781 79.613281 -26.726562 81.6875 -30.25 C 83.769531 -33.769531 85.289062 -37.742188 86.25 -42.171875 C 87.21875 -46.597656 87.703125 -51.101562 87.703125 -55.6875 L 87.703125 -113.625 L 109.625 -113.625 L 109.625 -55.6875 C 109.625 -47.90625 108.6875 -40.597656 106.8125 -33.765625 C 104.945312 -26.941406 102.015625 -20.941406 98.015625 -15.765625 C 94.015625 -10.585938 88.867188 -6.53125 82.578125 -3.59375 C 76.285156 -0.664062 68.765625 0.796875 60.015625 0.796875 Z M 60.015625 0.796875 "/></g></g></g><g fill="#050a44" fill-opacity="1"><g transform="translate(528.859081, 497.435956)"><g><path d="M 14.65625 0 L 14.65625 -140.640625 L 65.765625 -140.640625 C 81.078125 -140.640625 93.882812 -137.5 104.1875 -131.21875 C 114.488281 -124.945312 122.210938 -116.492188 127.359375 -105.859375 C 132.515625 -95.234375 135.09375 -83.453125 135.09375 -70.515625 C 135.09375 -56.253906 132.25 -43.84375 126.5625 -33.28125 C 120.882812 -22.71875 112.863281 -14.53125 102.5 -8.71875 C 92.132812 -2.90625 79.890625 0 65.765625 0 Z M 107.5625 -70.515625 C 107.5625 -79.628906 105.910156 -87.648438 102.609375 -94.578125 C 99.304688 -101.515625 94.550781 -106.929688 88.34375 -110.828125 C 82.132812 -114.722656 74.609375 -116.671875 65.765625 -116.671875 L 42 -116.671875 L 42 -23.96875 L 65.765625 -23.96875 C 74.742188 -23.96875 82.332031 -25.976562 88.53125 -30 C 94.738281 -34.03125 99.460938 -39.578125 102.703125 -46.640625 C 105.941406 -53.710938 107.5625 -61.671875 107.5625 -70.515625 Z M 107.5625 -70.515625 "/></g></g></g><g fill="#050a44" fill-opacity="1"><g transform="translate(670.681657, 497.435956)"><g><path d="M 30.5 -140.640625 L 65.171875 -74.484375 L 100.421875 -140.640625 L 129.9375 -140.640625 L 78.828125 -49.125 L 78.828125 0 L 51.703125 0 L 51.703125 -49.515625 L 0.796875 -140.640625 Z M 30.5 -140.640625 "/></g></g></g></svg>