<svg xmlns="http://www.w3.org/2000/svg" xmlns:xlink="http://www.w3.org/1999/xlink" zoomAndPan="magnify" preserveAspectRatio="xMidYMid meet" version="1.0" viewBox="0 163.04 802.35 576.89"><defs><g/><clipPath id="794eb72543"><path d="M 0 163.089844 L 451.5 163.089844 L 451.5 614.589844 L 0 614.589844 Z M 0 163.089844 " clip-rule="nonzero"/></clipPath></defs><g clip-path="url(#794eb72543)"><path fill="#bd5831" d="M 451.5 403.664062 L 451.5 445.277344 L 407.667969 445.277344 L 399.21875 509.128906 C 395.515625 537.082031 371.453125 558.152344 343.273438 558.152344 L 301 558.152344 L 301 614.589844 L 56.4375 614.589844 L 56.4375 526.003906 C 56.4375 517.347656 53.390625 508.921875 47.839844 502.261719 C 12.546875 459.859375 -4.121094 406.109375 0.867188 350.898438 C 9.40625 256.136719 83.828125 178.007812 177.835938 165.085938 C 253.914062 154.589844 326.640625 184.988281 372.507812 246.203125 C 394.722656 273.652344 415.664062 321.660156 437.824219 372.492188 C 441.847656 381.710938 451.519531 403.648438 451.519531 403.648438 Z M 451.5 403.664062 " fill-opacity="0.5" fill-rule="nonzero"/></g><path fill="#bd5831" d="M 282.1875 370.027344 C 282.1875 363.066406 280.925781 356.464844 279.160156 350.070312 L 314.09375 329.902344 L 295.28125 297.320312 L 260.535156 317.371094 C 251.128906 307.796875 239.125 300.949219 225.730469 297.46875 L 225.730469 257.171875 L 188.105469 257.171875 L 188.105469 297.46875 C 174.730469 300.949219 162.726562 307.796875 153.304688 317.371094 L 118.554688 297.320312 L 99.742188 329.902344 L 134.679688 350.070312 C 132.910156 356.464844 131.648438 363.085938 131.648438 370.027344 C 131.648438 376.96875 132.910156 383.59375 134.679688 389.988281 L 99.742188 410.15625 L 118.554688 442.738281 L 153.304688 422.683594 C 162.710938 432.261719 174.710938 439.109375 188.105469 442.589844 L 188.105469 482.886719 L 225.730469 482.886719 L 225.730469 442.589844 C 239.105469 439.109375 251.109375 432.261719 260.535156 422.683594 L 295.28125 442.738281 L 314.09375 410.15625 L 279.160156 389.988281 C 280.925781 383.59375 282.1875 376.96875 282.1875 370.027344 Z M 206.9375 407.652344 C 186.1875 407.652344 169.3125 390.777344 169.3125 370.027344 C 169.3125 349.277344 186.1875 332.402344 206.9375 332.402344 C 227.6875 332.402344 244.5625 349.277344 244.5625 370.027344 C 244.5625 390.777344 227.6875 407.652344 206.9375 407.652344 Z M 206.9375 407.652344 " fill-opacity="1" fill-rule="nonzero"/><g fill="#bd5831" fill-opacity="1"><g transform="translate(40.966288, 739.928743)"><g><path d="M 64.96875 -113.1875 L 64.96875 -98.75 C 64.96875 -97.207031 64.195312 -96.4375 62.65625 -96.4375 L 26.859375 -96.4375 L 26.859375 -67.421875 L 54 -67.421875 C 55.539062 -67.421875 56.3125 -66.648438 56.3125 -65.109375 L 56.3125 -50.671875 C 56.3125 -49.128906 55.539062 -48.359375 54 -48.359375 L 26.859375 -48.359375 L 26.859375 -2.3125 C 26.859375 -0.769531 26.085938 0 24.546875 0 L 9.53125 0 C 7.988281 0 7.21875 -0.769531 7.21875 -2.3125 L 7.21875 -113.1875 C 7.21875 -114.726562 7.988281 -115.5 9.53125 -115.5 L 62.65625 -115.5 C 64.195312 -115.5 64.96875 -114.726562 64.96875 -113.1875 Z M 64.96875 -113.1875 "/></g></g></g><g fill="#bd5831" fill-opacity="1"><g transform="translate(113.153437, 739.928743)"><g><path d="M 7.21875 -20.796875 L 7.21875 -80.265625 C 7.21875 -87.097656 9 -92.269531 12.5625 -95.78125 C 16.125 -99.300781 21.273438 -101.0625 28.015625 -101.0625 L 44.171875 -101.0625 C 51.003906 -101.0625 56.175781 -99.300781 59.6875 -95.78125 C 63.207031 -92.269531 64.96875 -87.097656 64.96875 -80.265625 L 64.96875 -20.796875 C 64.96875 -14.054688 63.207031 -8.90625 59.6875 -5.34375 C 56.175781 -1.78125 51.003906 0 44.171875 0 L 28.015625 0 C 21.273438 0 16.125 -1.78125 12.5625 -5.34375 C 9 -8.90625 7.21875 -14.054688 7.21875 -20.796875 Z M 31.765625 -18.625 L 41 -18.625 C 44.851562 -18.625 46.78125 -20.550781 46.78125 -24.40625 L 46.78125 -76.65625 C 46.78125 -80.507812 44.851562 -82.4375 41 -82.4375 L 31.765625 -82.4375 C 27.910156 -82.4375 25.984375 -80.507812 25.984375 -76.65625 L 25.984375 -24.40625 C 25.984375 -20.550781 27.910156 -18.625 31.765625 -18.625 Z M 31.765625 -18.625 "/></g></g></g><g fill="#bd5831" fill-opacity="1"><g transform="translate(185.340587, 739.928743)"><g><path d="M 64.96875 -80.265625 L 64.96875 -51.25 C 64.96875 -42.875 62.273438 -37.003906 56.890625 -33.640625 L 64.390625 -2.59375 C 64.867188 -0.863281 64.195312 0 62.375 0 L 48.21875 0 C 46.875 0 46.054688 -0.671875 45.765625 -2.015625 L 38.84375 -30.46875 L 25.984375 -30.46875 L 25.984375 -2.3125 C 25.984375 -0.769531 25.210938 0 23.671875 0 L 9.53125 0 C 7.988281 0 7.21875 -0.769531 7.21875 -2.3125 L 7.21875 -98.75 C 7.21875 -100.289062 7.988281 -101.0625 9.53125 -101.0625 L 44.171875 -101.0625 C 51.003906 -101.0625 56.175781 -99.300781 59.6875 -95.78125 C 63.207031 -92.269531 64.96875 -87.097656 64.96875 -80.265625 Z M 25.984375 -49.09375 L 40.421875 -49.09375 C 44.273438 -49.09375 46.203125 -51.015625 46.203125 -54.859375 L 46.203125 -76.65625 C 46.203125 -80.507812 44.273438 -82.4375 40.421875 -82.4375 L 25.984375 -82.4375 Z M 25.984375 -49.09375 "/></g></g></g><g fill="#bd5831" fill-opacity="1"><g transform="translate(257.527737, 739.928743)"><g><path d="M 7.21875 -20.796875 L 7.21875 -80.265625 C 7.21875 -87.097656 9 -92.269531 12.5625 -95.78125 C 16.125 -99.300781 21.273438 -101.0625 28.015625 -101.0625 L 44.171875 -101.0625 C 50.910156 -101.0625 56.0625 -99.300781 59.625 -95.78125 C 63.1875 -92.269531 64.96875 -87.097656 64.96875 -80.265625 L 64.96875 -69.59375 C 64.96875 -68.050781 64.195312 -67.28125 62.65625 -67.28125 L 49.09375 -67.28125 C 47.550781 -67.28125 46.78125 -68.050781 46.78125 -69.59375 L 46.78125 -76.65625 C 46.78125 -80.507812 44.851562 -82.4375 41 -82.4375 L 31.765625 -82.4375 C 27.910156 -82.4375 25.984375 -80.507812 25.984375 -76.65625 L 25.984375 -24.40625 C 25.984375 -20.550781 27.910156 -18.625 31.765625 -18.625 L 41 -18.625 C 44.851562 -18.625 46.78125 -20.550781 46.78125 -24.40625 L 46.78125 -36.953125 L 39.265625 -36.953125 C 37.722656 -36.953125 36.953125 -37.722656 36.953125 -39.265625 L 36.953125 -53.703125 C 36.953125 -55.242188 37.722656 -56.015625 39.265625 -56.015625 L 62.65625 -56.015625 C 64.195312 -56.015625 64.96875 -55.242188 64.96875 -53.703125 L 64.96875 -20.796875 C 64.96875 -14.054688 63.1875 -8.90625 59.625 -5.34375 C 56.0625 -1.78125 50.910156 0 44.171875 0 L 28.015625 0 C 21.273438 0 16.125 -1.78125 12.5625 -5.34375 C 9 -8.90625 7.21875 -14.054688 7.21875 -20.796875 Z M 7.21875 -20.796875 "/></g></g></g><g fill="#bd5831" fill-opacity="1"><g transform="translate(329.714887, 739.928743)"><g><path d="M 64.828125 -98.75 L 64.828125 -84.3125 C 64.828125 -82.675781 64.054688 -81.859375 62.515625 -81.859375 L 26.859375 -81.859375 L 26.859375 -59.625 L 54 -59.625 C 55.539062 -59.625 56.3125 -58.804688 56.3125 -57.171875 L 56.3125 -42.875 C 56.3125 -41.238281 55.539062 -40.421875 54 -40.421875 L 26.859375 -40.421875 L 26.859375 -19.0625 L 62.515625 -19.0625 C 64.054688 -19.0625 64.828125 -18.289062 64.828125 -16.75 L 64.828125 -2.3125 C 64.828125 -0.769531 64.054688 0 62.515625 0 L 9.390625 0 C 7.941406 0 7.21875 -0.769531 7.21875 -2.3125 L 7.21875 -98.75 C 7.21875 -100.289062 7.941406 -101.0625 9.390625 -101.0625 L 62.515625 -101.0625 C 64.054688 -101.0625 64.828125 -100.289062 64.828125 -98.75 Z M 64.828125 -98.75 "/></g></g></g><g fill="#000000" fill-opacity="1"><g transform="translate(401.772204, 739.928743)"><g><path d="M 7.21875 -45.328125 L 7.21875 -58.609375 C 7.21875 -60.535156 8.179688 -61.5 10.109375 -61.5 L 32.921875 -61.5 C 34.847656 -61.5 35.8125 -60.535156 35.8125 -58.609375 L 35.8125 -45.328125 C 35.8125 -43.410156 34.847656 -42.453125 32.921875 -42.453125 L 10.109375 -42.453125 C 8.179688 -42.453125 7.21875 -43.410156 7.21875 -45.328125 Z M 7.21875 -45.328125 "/></g></g></g><g fill="#a8a646" fill-opacity="1"><g transform="translate(444.804694, 739.928743)"><g><path d="M 28.015625 -115.5 L 44.171875 -115.5 C 51.003906 -115.5 56.175781 -113.738281 59.6875 -110.21875 C 63.207031 -106.707031 64.96875 -101.535156 64.96875 -94.703125 L 64.96875 -79.40625 C 64.96875 -77.863281 64.195312 -77.09375 62.65625 -77.09375 L 47.640625 -77.09375 C 46.097656 -77.09375 45.328125 -77.863281 45.328125 -79.40625 L 45.328125 -90.671875 C 45.328125 -94.515625 43.40625 -96.4375 39.5625 -96.4375 L 32.625 -96.4375 C 28.78125 -96.4375 26.859375 -94.515625 26.859375 -90.671875 L 26.859375 -70.75 L 61.21875 -59.484375 C 63.71875 -58.421875 64.96875 -56.640625 64.96875 -54.140625 L 64.96875 -20.796875 C 64.96875 -14.054688 63.207031 -8.90625 59.6875 -5.34375 C 56.175781 -1.78125 51.003906 0 44.171875 0 L 28.015625 0 C 21.273438 0 16.125 -1.78125 12.5625 -5.34375 C 9 -8.90625 7.21875 -14.054688 7.21875 -20.796875 L 7.21875 -35.953125 C 7.21875 -37.492188 7.988281 -38.265625 9.53125 -38.265625 L 24.546875 -38.265625 C 26.085938 -38.265625 26.859375 -37.492188 26.859375 -35.953125 L 26.859375 -24.828125 C 26.859375 -20.984375 28.78125 -19.0625 32.625 -19.0625 L 39.5625 -19.0625 C 43.40625 -19.0625 45.328125 -20.984375 45.328125 -24.828125 L 45.328125 -44.03125 L 11.109375 -55.296875 C 8.515625 -56.160156 7.21875 -57.941406 7.21875 -60.640625 L 7.21875 -94.703125 C 7.21875 -101.535156 9 -106.707031 12.5625 -110.21875 C 16.125 -113.738281 21.273438 -115.5 28.015625 -115.5 Z M 28.015625 -115.5 "/></g></g></g><g fill="#a8a646" fill-opacity="1"><g transform="translate(516.991843, 739.928743)"><g><path d="M 59.765625 -101.0625 L 6.640625 -101.0625 C 5.097656 -101.0625 4.328125 -100.289062 4.328125 -98.75 L 4.328125 -84.3125 C 4.328125 -82.769531 5.097656 -82 6.640625 -82 L 23.390625 -82 L 23.390625 -2.3125 C 23.390625 -0.769531 24.160156 0 25.703125 0 L 40.71875 0 C 42.257812 0 43.03125 -0.769531 43.03125 -2.3125 L 43.03125 -82 L 59.765625 -82 C 61.304688 -82 62.078125 -82.769531 62.078125 -84.3125 L 62.078125 -98.75 C 62.078125 -100.289062 61.304688 -101.0625 59.765625 -101.0625 Z M 59.765625 -101.0625 "/></g></g></g><g fill="#a8a646" fill-opacity="1"><g transform="translate(583.404033, 739.928743)"><g><path d="M 48.796875 -101.0625 L 62.078125 -101.0625 C 62.847656 -101.0625 63.519531 -100.769531 64.09375 -100.1875 C 64.675781 -99.613281 64.96875 -98.941406 64.96875 -98.171875 L 64.96875 -20.796875 C 64.96875 -14.054688 63.207031 -8.90625 59.6875 -5.34375 C 56.175781 -1.78125 51.003906 0 44.171875 0 L 28.015625 0 C 21.273438 0 16.125 -1.78125 12.5625 -5.34375 C 9 -8.90625 7.21875 -14.054688 7.21875 -20.796875 L 7.21875 -98.171875 C 7.21875 -98.941406 7.503906 -99.613281 8.078125 -100.1875 C 8.660156 -100.769531 9.335938 -101.0625 10.109375 -101.0625 L 23.96875 -101.0625 C 24.738281 -101.0625 25.410156 -100.769531 25.984375 -100.1875 C 26.566406 -99.613281 26.859375 -98.941406 26.859375 -98.171875 L 26.859375 -24.828125 C 26.859375 -20.984375 28.78125 -19.0625 32.625 -19.0625 L 40.140625 -19.0625 C 43.984375 -19.0625 45.90625 -20.984375 45.90625 -24.828125 L 45.90625 -98.171875 C 45.90625 -98.941406 46.191406 -99.613281 46.765625 -100.1875 C 47.347656 -100.769531 48.023438 -101.0625 48.796875 -101.0625 Z M 48.796875 -101.0625 "/></g></g></g><g fill="#a8a646" fill-opacity="1"><g transform="translate(655.591182, 739.928743)"><g><path d="M 7.21875 -2.3125 L 7.21875 -98.75 C 7.21875 -100.289062 7.988281 -101.0625 9.53125 -101.0625 L 44.171875 -101.0625 C 51.003906 -101.0625 56.175781 -99.28125 59.6875 -95.71875 C 63.207031 -92.15625 64.96875 -86.957031 64.96875 -80.125 L 64.96875 -20.796875 C 64.96875 -14.054688 63.207031 -8.90625 59.6875 -5.34375 C 56.175781 -1.78125 51.003906 0 44.171875 0 L 9.53125 0 C 7.988281 0 7.21875 -0.769531 7.21875 -2.3125 Z M 26.859375 -19.0625 L 40.140625 -19.0625 C 43.984375 -19.0625 45.90625 -20.984375 45.90625 -24.828125 L 45.90625 -76.078125 C 45.90625 -80.023438 43.984375 -82 40.140625 -82 L 26.859375 -82 Z M 26.859375 -19.0625 "/></g></g></g><g fill="#a8a646" fill-opacity="1"><g transform="translate(727.778332, 739.928743)"><g><path d="M 57.46875 -101.0625 L 71.90625 -101.0625 C 72.957031 -101.0625 73.722656 -100.75 74.203125 -100.125 C 74.691406 -99.5 74.691406 -98.703125 74.203125 -97.734375 L 47.78125 -37.828125 L 47.78125 -2.890625 C 47.78125 -0.960938 46.820312 0 44.90625 0 L 31.046875 0 C 29.117188 0 28.15625 -0.960938 28.15625 -2.890625 L 28.15625 -37.828125 L 1.734375 -97.734375 C 1.347656 -98.703125 1.367188 -99.5 1.796875 -100.125 C 2.234375 -100.75 2.984375 -101.0625 4.046875 -101.0625 L 18.484375 -101.0625 C 20.117188 -101.0625 21.222656 -100.289062 21.796875 -98.75 L 37.96875 -61.640625 L 54.140625 -98.75 C 54.710938 -100.289062 55.820312 -101.0625 57.46875 -101.0625 Z M 57.46875 -101.0625 "/></g></g></g></svg>